# xmcd CD database file
#
# Track frame offsets:
#	150
#	22689
#	48911
#	70264
#
# Disc length: 1231 seconds
#
# Revision: 3
# Processed by: cddbd v1.5.2PL0 Copyright (c) Steve Scherf et al.
# Submitted via: CDex 1.70beta2
#
DISCID=2604cd04
DTITLE=aiko - ずっと
DYEAR=1900
DGENRE=JPop
TTITLE0=ずっと
TTITLE1=瞬き
TTITLE2=ぬけがら
TTITLE3=ずっと (Instrumental)
EXTD=
EXTT0=
EXTT1=
EXTT2=
EXTT3=
PLAYORDER=
